<mxfile host="app.diagrams.net" modified="2024-04-22T08:40:11.130Z" agent="Mozilla/5.0 (Windows NT 10.0; Win64; x64; rv:124.0) Gecko/20100101 Firefox/124.0" etag="ZEC8c8IBrdi8x9lcHIEr" version="24.2.7" type="device" pages="2">
  <diagram name="Page-1" id="wAWDvW-xQDipIDDKOYBQ">
    <mxGraphModel dx="1845" dy="483" grid="1" gridSize="10" guides="1" tooltips="1" connect="1" arrows="1" fold="1" page="1" pageScale="1" pageWidth="850" pageHeight="1100" math="0" shadow="0">
      <root>
        <mxCell id="0" />
        <mxCell id="1" parent="0" />
        <mxCell id="NSzrFH0H3gAdwd_SfrIY-2" value="" style="swimlane;startSize=0;" parent="1" vertex="1">
          <mxGeometry x="600" y="350" width="790" height="980" as="geometry" />
        </mxCell>
        <mxCell id="NSzrFH0H3gAdwd_SfrIY-7" value="Sign in" style="ellipse;whiteSpace=wrap;html=1;" parent="NSzrFH0H3gAdwd_SfrIY-2" vertex="1">
          <mxGeometry x="70" y="40" width="90" height="70" as="geometry" />
        </mxCell>
        <mxCell id="NSzrFH0H3gAdwd_SfrIY-22" value="Skip Time" style="ellipse;whiteSpace=wrap;html=1;" parent="NSzrFH0H3gAdwd_SfrIY-2" vertex="1">
          <mxGeometry x="120" y="380" width="90" height="70" as="geometry" />
        </mxCell>
        <mxCell id="NSzrFH0H3gAdwd_SfrIY-21" value="Edit Password" style="ellipse;whiteSpace=wrap;html=1;" parent="NSzrFH0H3gAdwd_SfrIY-2" vertex="1">
          <mxGeometry x="410" y="290" width="70" height="60" as="geometry" />
        </mxCell>
        <mxCell id="NSzrFH0H3gAdwd_SfrIY-20" value="Sign up" style="ellipse;whiteSpace=wrap;html=1;" parent="NSzrFH0H3gAdwd_SfrIY-2" vertex="1">
          <mxGeometry x="70" y="130" width="90" height="70" as="geometry" />
        </mxCell>
        <mxCell id="NSzrFH0H3gAdwd_SfrIY-19" value="View Profile" style="ellipse;whiteSpace=wrap;html=1;" parent="NSzrFH0H3gAdwd_SfrIY-2" vertex="1">
          <mxGeometry x="40" y="295" width="90" height="70" as="geometry" />
        </mxCell>
        <mxCell id="NSzrFH0H3gAdwd_SfrIY-18" value="Sign out" style="ellipse;whiteSpace=wrap;html=1;" parent="NSzrFH0H3gAdwd_SfrIY-2" vertex="1">
          <mxGeometry x="60" y="210" width="90" height="70" as="geometry" />
        </mxCell>
        <mxCell id="NSzrFH0H3gAdwd_SfrIY-24" value="" style="endArrow=open;endFill=1;endSize=12;html=1;rounded=0;exitX=0.5;exitY=0.5;exitDx=0;exitDy=0;exitPerimeter=0;entryX=0.084;entryY=0.817;entryDx=0;entryDy=0;entryPerimeter=0;" parent="NSzrFH0H3gAdwd_SfrIY-2" source="NSzrFH0H3gAdwd_SfrIY-3" edge="1">
          <mxGeometry width="160" relative="1" as="geometry">
            <mxPoint x="-89" y="273" as="sourcePoint" />
            <mxPoint x="60" y="240" as="targetPoint" />
          </mxGeometry>
        </mxCell>
        <mxCell id="NSzrFH0H3gAdwd_SfrIY-36" value="Edit First Name" style="ellipse;whiteSpace=wrap;html=1;" parent="NSzrFH0H3gAdwd_SfrIY-2" vertex="1">
          <mxGeometry x="180" y="190" width="70" height="60" as="geometry" />
        </mxCell>
        <mxCell id="NSzrFH0H3gAdwd_SfrIY-35" value="Edit Profile" style="ellipse;whiteSpace=wrap;html=1;" parent="NSzrFH0H3gAdwd_SfrIY-2" vertex="1">
          <mxGeometry x="220" y="330" width="70" height="60" as="geometry" />
        </mxCell>
        <mxCell id="NSzrFH0H3gAdwd_SfrIY-33" value="Edit Last Name" style="ellipse;whiteSpace=wrap;html=1;" parent="NSzrFH0H3gAdwd_SfrIY-2" vertex="1">
          <mxGeometry x="280" y="180" width="70" height="60" as="geometry" />
        </mxCell>
        <mxCell id="NSzrFH0H3gAdwd_SfrIY-34" value="Edit E-mail" style="ellipse;whiteSpace=wrap;html=1;" parent="NSzrFH0H3gAdwd_SfrIY-2" vertex="1">
          <mxGeometry x="350" y="230" width="70" height="60" as="geometry" />
        </mxCell>
        <mxCell id="NSzrFH0H3gAdwd_SfrIY-46" value="Create Portfolio" style="ellipse;whiteSpace=wrap;html=1;" parent="NSzrFH0H3gAdwd_SfrIY-2" vertex="1">
          <mxGeometry x="40" y="640" width="90" height="70" as="geometry" />
        </mxCell>
        <mxCell id="NSzrFH0H3gAdwd_SfrIY-45" value="Start Simulation" style="ellipse;whiteSpace=wrap;html=1;" parent="NSzrFH0H3gAdwd_SfrIY-2" vertex="1">
          <mxGeometry x="40" y="460" width="90" height="70" as="geometry" />
        </mxCell>
        <mxCell id="NSzrFH0H3gAdwd_SfrIY-44" value="Stop Simulation" style="ellipse;whiteSpace=wrap;html=1;" parent="NSzrFH0H3gAdwd_SfrIY-2" vertex="1">
          <mxGeometry x="70" y="570" width="90" height="70" as="geometry" />
        </mxCell>
        <mxCell id="NSzrFH0H3gAdwd_SfrIY-50" value="Change Balance" style="ellipse;whiteSpace=wrap;html=1;" parent="NSzrFH0H3gAdwd_SfrIY-2" vertex="1">
          <mxGeometry x="330" y="800" width="90" height="70" as="geometry" />
        </mxCell>
        <mxCell id="NSzrFH0H3gAdwd_SfrIY-49" value="View Accounts" style="ellipse;whiteSpace=wrap;html=1;" parent="NSzrFH0H3gAdwd_SfrIY-2" vertex="1">
          <mxGeometry x="660" y="610" width="90" height="70" as="geometry" />
        </mxCell>
        <mxCell id="NSzrFH0H3gAdwd_SfrIY-48" value="Reset Portfolio" style="ellipse;whiteSpace=wrap;html=1;" parent="NSzrFH0H3gAdwd_SfrIY-2" vertex="1">
          <mxGeometry x="40" y="720" width="90" height="70" as="geometry" />
        </mxCell>
        <mxCell id="NSzrFH0H3gAdwd_SfrIY-61" value="Delete Account" style="ellipse;whiteSpace=wrap;html=1;" parent="NSzrFH0H3gAdwd_SfrIY-2" vertex="1">
          <mxGeometry x="230" y="500" width="90" height="70" as="geometry" />
        </mxCell>
        <mxCell id="NSzrFH0H3gAdwd_SfrIY-60" value="Select Account" style="ellipse;whiteSpace=wrap;html=1;" parent="NSzrFH0H3gAdwd_SfrIY-2" vertex="1">
          <mxGeometry x="450" y="610" width="90" height="70" as="geometry" />
        </mxCell>
        <mxCell id="NSzrFH0H3gAdwd_SfrIY-63" value="Delete Portfolio" style="ellipse;whiteSpace=wrap;html=1;" parent="NSzrFH0H3gAdwd_SfrIY-2" vertex="1">
          <mxGeometry x="40" y="800" width="90" height="70" as="geometry" />
        </mxCell>
        <mxCell id="NSzrFH0H3gAdwd_SfrIY-81" value="Edit Username" style="ellipse;whiteSpace=wrap;html=1;" parent="NSzrFH0H3gAdwd_SfrIY-2" vertex="1">
          <mxGeometry x="410" y="360" width="70" height="60" as="geometry" />
        </mxCell>
        <mxCell id="NSzrFH0H3gAdwd_SfrIY-84" value="Sign in" style="ellipse;whiteSpace=wrap;html=1;" parent="NSzrFH0H3gAdwd_SfrIY-2" vertex="1">
          <mxGeometry x="650" y="690" width="90" height="70" as="geometry" />
        </mxCell>
        <mxCell id="NSzrFH0H3gAdwd_SfrIY-85" value="Sign up" style="ellipse;whiteSpace=wrap;html=1;" parent="NSzrFH0H3gAdwd_SfrIY-2" vertex="1">
          <mxGeometry x="670" y="530" width="90" height="70" as="geometry" />
        </mxCell>
        <mxCell id="NSzrFH0H3gAdwd_SfrIY-86" value="Sign out" style="ellipse;whiteSpace=wrap;html=1;" parent="NSzrFH0H3gAdwd_SfrIY-2" vertex="1">
          <mxGeometry x="660" y="780" width="90" height="70" as="geometry" />
        </mxCell>
        <mxCell id="NSzrFH0H3gAdwd_SfrIY-64" value="Buy Stock" style="ellipse;whiteSpace=wrap;html=1;" parent="NSzrFH0H3gAdwd_SfrIY-2" vertex="1">
          <mxGeometry x="510" y="20" width="90" height="70" as="geometry" />
        </mxCell>
        <mxCell id="NSzrFH0H3gAdwd_SfrIY-95" value="Sell Stock" style="ellipse;whiteSpace=wrap;html=1;" parent="NSzrFH0H3gAdwd_SfrIY-2" vertex="1">
          <mxGeometry x="500" y="110" width="90" height="70" as="geometry" />
        </mxCell>
        <mxCell id="gyJNxoxZwy5CsyFpe8hy-5" value="Include" style="endArrow=open;endSize=12;dashed=1;html=1;rounded=0;exitX=0.5;exitY=0;exitDx=0;exitDy=0;entryX=0.5;entryY=1;entryDx=0;entryDy=0;" parent="NSzrFH0H3gAdwd_SfrIY-2" source="NSzrFH0H3gAdwd_SfrIY-44" target="NSzrFH0H3gAdwd_SfrIY-45" edge="1">
          <mxGeometry width="160" relative="1" as="geometry">
            <mxPoint x="90" y="580" as="sourcePoint" />
            <mxPoint x="250" y="580" as="targetPoint" />
          </mxGeometry>
        </mxCell>
        <mxCell id="gyJNxoxZwy5CsyFpe8hy-4" value="Include" style="endArrow=open;endSize=12;dashed=1;html=1;rounded=0;entryX=0.5;entryY=0;entryDx=0;entryDy=0;exitX=0.5;exitY=1;exitDx=0;exitDy=0;" parent="NSzrFH0H3gAdwd_SfrIY-2" source="NSzrFH0H3gAdwd_SfrIY-22" target="NSzrFH0H3gAdwd_SfrIY-45" edge="1">
          <mxGeometry width="160" relative="1" as="geometry">
            <mxPoint x="35" y="470" as="sourcePoint" />
            <mxPoint x="195" y="470" as="targetPoint" />
          </mxGeometry>
        </mxCell>
        <mxCell id="gyJNxoxZwy5CsyFpe8hy-28" value="Extedns" style="endArrow=open;endSize=12;dashed=1;html=1;rounded=0;entryX=0.041;entryY=0.666;entryDx=0;entryDy=0;exitX=1;exitY=0.5;exitDx=0;exitDy=0;entryPerimeter=0;" parent="NSzrFH0H3gAdwd_SfrIY-2" source="NSzrFH0H3gAdwd_SfrIY-48" target="NSzrFH0H3gAdwd_SfrIY-60" edge="1">
          <mxGeometry width="160" relative="1" as="geometry">
            <mxPoint x="135" y="790" as="sourcePoint" />
            <mxPoint x="295" y="790" as="targetPoint" />
          </mxGeometry>
        </mxCell>
        <mxCell id="gyJNxoxZwy5CsyFpe8hy-27" value="Extedns" style="endArrow=open;endSize=12;dashed=1;html=1;rounded=0;exitX=1;exitY=0;exitDx=0;exitDy=0;entryX=0.5;entryY=1;entryDx=0;entryDy=0;" parent="NSzrFH0H3gAdwd_SfrIY-2" source="NSzrFH0H3gAdwd_SfrIY-50" target="NSzrFH0H3gAdwd_SfrIY-60" edge="1">
          <mxGeometry width="160" relative="1" as="geometry">
            <mxPoint x="440" y="794.6800000000001" as="sourcePoint" />
            <mxPoint x="600" y="794.6800000000001" as="targetPoint" />
          </mxGeometry>
        </mxCell>
        <mxCell id="gyJNxoxZwy5CsyFpe8hy-7" value="Extedns" style="endArrow=open;endSize=12;dashed=1;html=1;rounded=0;exitX=1;exitY=0;exitDx=0;exitDy=0;entryX=0;entryY=1;entryDx=0;entryDy=0;" parent="NSzrFH0H3gAdwd_SfrIY-2" source="NSzrFH0H3gAdwd_SfrIY-63" target="NSzrFH0H3gAdwd_SfrIY-60" edge="1">
          <mxGeometry width="160" relative="1" as="geometry">
            <mxPoint x="160" y="814.6800000000001" as="sourcePoint" />
            <mxPoint x="320" y="814.6800000000001" as="targetPoint" />
          </mxGeometry>
        </mxCell>
        <mxCell id="gyJNxoxZwy5CsyFpe8hy-8" value="Extedns" style="endArrow=open;endSize=12;dashed=1;html=1;rounded=0;exitX=1;exitY=0.5;exitDx=0;exitDy=0;entryX=0;entryY=0.5;entryDx=0;entryDy=0;" parent="NSzrFH0H3gAdwd_SfrIY-2" source="NSzrFH0H3gAdwd_SfrIY-46" target="NSzrFH0H3gAdwd_SfrIY-60" edge="1">
          <mxGeometry width="160" relative="1" as="geometry">
            <mxPoint x="150" y="714.6800000000001" as="sourcePoint" />
            <mxPoint x="310" y="714.6800000000001" as="targetPoint" />
          </mxGeometry>
        </mxCell>
        <mxCell id="gyJNxoxZwy5CsyFpe8hy-9" value="Extedns" style="endArrow=open;endSize=12;dashed=1;html=1;rounded=0;exitX=1;exitY=0.5;exitDx=0;exitDy=0;entryX=0;entryY=0;entryDx=0;entryDy=0;" parent="NSzrFH0H3gAdwd_SfrIY-2" source="NSzrFH0H3gAdwd_SfrIY-61" target="NSzrFH0H3gAdwd_SfrIY-60" edge="1">
          <mxGeometry width="160" relative="1" as="geometry">
            <mxPoint x="305" y="580" as="sourcePoint" />
            <mxPoint x="465" y="580" as="targetPoint" />
          </mxGeometry>
        </mxCell>
        <mxCell id="gyJNxoxZwy5CsyFpe8hy-10" value="Extedns" style="endArrow=open;endSize=12;dashed=1;html=1;rounded=0;exitX=0.5;exitY=1;exitDx=0;exitDy=0;entryX=0.5;entryY=0;entryDx=0;entryDy=0;" parent="NSzrFH0H3gAdwd_SfrIY-2" source="NSzrFH0H3gAdwd_SfrIY-35" target="NSzrFH0H3gAdwd_SfrIY-60" edge="1">
          <mxGeometry width="160" relative="1" as="geometry">
            <mxPoint x="330" y="470" as="sourcePoint" />
            <mxPoint x="490" y="470" as="targetPoint" />
          </mxGeometry>
        </mxCell>
        <mxCell id="gyJNxoxZwy5CsyFpe8hy-11" value="Extedns" style="endArrow=open;endSize=12;dashed=1;html=1;rounded=0;entryX=1;entryY=1;entryDx=0;entryDy=0;exitX=0;exitY=0.5;exitDx=0;exitDy=0;" parent="NSzrFH0H3gAdwd_SfrIY-2" source="NSzrFH0H3gAdwd_SfrIY-81" target="NSzrFH0H3gAdwd_SfrIY-35" edge="1">
          <mxGeometry width="160" relative="1" as="geometry">
            <mxPoint x="410" y="444.67999999999995" as="sourcePoint" />
            <mxPoint x="570" y="444.67999999999995" as="targetPoint" />
          </mxGeometry>
        </mxCell>
        <mxCell id="gyJNxoxZwy5CsyFpe8hy-12" value="Extedns" style="endArrow=open;endSize=12;dashed=1;html=1;rounded=0;entryX=1;entryY=0.5;entryDx=0;entryDy=0;exitX=0;exitY=1;exitDx=0;exitDy=0;" parent="NSzrFH0H3gAdwd_SfrIY-2" source="NSzrFH0H3gAdwd_SfrIY-21" target="NSzrFH0H3gAdwd_SfrIY-35" edge="1">
          <mxGeometry width="160" relative="1" as="geometry">
            <mxPoint x="315" y="349.99999999999994" as="sourcePoint" />
            <mxPoint x="475" y="349.99999999999994" as="targetPoint" />
          </mxGeometry>
        </mxCell>
        <mxCell id="gyJNxoxZwy5CsyFpe8hy-13" value="Extedns" style="endArrow=open;endSize=12;dashed=1;html=1;rounded=0;entryX=0.942;entryY=0.24;entryDx=0;entryDy=0;entryPerimeter=0;exitX=0;exitY=1;exitDx=0;exitDy=0;" parent="NSzrFH0H3gAdwd_SfrIY-2" source="NSzrFH0H3gAdwd_SfrIY-34" target="NSzrFH0H3gAdwd_SfrIY-35" edge="1">
          <mxGeometry width="160" relative="1" as="geometry">
            <mxPoint x="240" y="319.67999999999995" as="sourcePoint" />
            <mxPoint x="400" y="319.67999999999995" as="targetPoint" />
          </mxGeometry>
        </mxCell>
        <mxCell id="gyJNxoxZwy5CsyFpe8hy-14" value="Extedns" style="endArrow=open;endSize=12;dashed=1;html=1;rounded=0;entryX=0.5;entryY=0;entryDx=0;entryDy=0;exitX=0.5;exitY=1;exitDx=0;exitDy=0;" parent="NSzrFH0H3gAdwd_SfrIY-2" source="NSzrFH0H3gAdwd_SfrIY-33" target="NSzrFH0H3gAdwd_SfrIY-35" edge="1">
          <mxGeometry width="160" relative="1" as="geometry">
            <mxPoint x="250" y="259.67999999999995" as="sourcePoint" />
            <mxPoint x="410" y="259.67999999999995" as="targetPoint" />
          </mxGeometry>
        </mxCell>
        <mxCell id="gyJNxoxZwy5CsyFpe8hy-15" value="Extedns" style="endArrow=open;endSize=12;dashed=1;html=1;rounded=0;exitX=0.5;exitY=1;exitDx=0;exitDy=0;entryX=0;entryY=0;entryDx=0;entryDy=0;" parent="NSzrFH0H3gAdwd_SfrIY-2" source="NSzrFH0H3gAdwd_SfrIY-36" target="NSzrFH0H3gAdwd_SfrIY-35" edge="1">
          <mxGeometry width="160" relative="1" as="geometry">
            <mxPoint x="190" y="289.3499999999999" as="sourcePoint" />
            <mxPoint x="350" y="289.3499999999999" as="targetPoint" />
          </mxGeometry>
        </mxCell>
        <mxCell id="gyJNxoxZwy5CsyFpe8hy-16" value="Extedns" style="endArrow=open;endSize=12;dashed=1;html=1;rounded=0;entryX=1;entryY=0.5;entryDx=0;entryDy=0;exitX=0;exitY=0.5;exitDx=0;exitDy=0;" parent="NSzrFH0H3gAdwd_SfrIY-2" source="NSzrFH0H3gAdwd_SfrIY-35" target="NSzrFH0H3gAdwd_SfrIY-19" edge="1">
          <mxGeometry width="160" relative="1" as="geometry">
            <mxPoint x="160" y="329.3499999999999" as="sourcePoint" />
            <mxPoint x="320" y="329.3499999999999" as="targetPoint" />
          </mxGeometry>
        </mxCell>
        <mxCell id="gyJNxoxZwy5CsyFpe8hy-20" value="Extedns" style="endArrow=open;endSize=12;dashed=1;html=1;rounded=0;exitX=1;exitY=0.5;exitDx=0;exitDy=0;entryX=0;entryY=0.5;entryDx=0;entryDy=0;" parent="NSzrFH0H3gAdwd_SfrIY-2" source="NSzrFH0H3gAdwd_SfrIY-60" target="NSzrFH0H3gAdwd_SfrIY-49" edge="1">
          <mxGeometry width="160" relative="1" as="geometry">
            <mxPoint x="500" y="534.68" as="sourcePoint" />
            <mxPoint x="660" y="534.68" as="targetPoint" />
          </mxGeometry>
        </mxCell>
        <mxCell id="NSzrFH0H3gAdwd_SfrIY-65" value="Select Strategy" style="ellipse;whiteSpace=wrap;html=1;" parent="NSzrFH0H3gAdwd_SfrIY-2" vertex="1">
          <mxGeometry x="30" y="890" width="90" height="70" as="geometry" />
        </mxCell>
        <mxCell id="NSzrFH0H3gAdwd_SfrIY-3" value="User&lt;br&gt;" style="shape=umlActor;verticalLabelPosition=bottom;verticalAlign=top;html=1;outlineConnect=0;" parent="1" vertex="1">
          <mxGeometry x="330" y="670" width="70" height="140" as="geometry" />
        </mxCell>
        <mxCell id="NSzrFH0H3gAdwd_SfrIY-13" value="" style="endArrow=open;endFill=1;endSize=12;html=1;rounded=0;entryX=0.084;entryY=0.817;entryDx=0;entryDy=0;entryPerimeter=0;exitX=0.5;exitY=0.5;exitDx=0;exitDy=0;exitPerimeter=0;" parent="1" source="NSzrFH0H3gAdwd_SfrIY-3" target="NSzrFH0H3gAdwd_SfrIY-7" edge="1">
          <mxGeometry width="160" relative="1" as="geometry">
            <mxPoint x="530" y="480" as="sourcePoint" />
            <mxPoint x="690" y="480" as="targetPoint" />
          </mxGeometry>
        </mxCell>
        <mxCell id="NSzrFH0H3gAdwd_SfrIY-23" value="" style="endArrow=open;endFill=1;endSize=12;html=1;rounded=0;exitX=0.5;exitY=0.5;exitDx=0;exitDy=0;exitPerimeter=0;entryX=0;entryY=0.5;entryDx=0;entryDy=0;" parent="1" source="NSzrFH0H3gAdwd_SfrIY-3" target="NSzrFH0H3gAdwd_SfrIY-20" edge="1">
          <mxGeometry width="160" relative="1" as="geometry">
            <mxPoint x="539" y="490" as="sourcePoint" />
            <mxPoint x="688" y="457" as="targetPoint" />
          </mxGeometry>
        </mxCell>
        <mxCell id="NSzrFH0H3gAdwd_SfrIY-25" value="" style="endArrow=open;endFill=1;endSize=12;html=1;rounded=0;exitX=0.55;exitY=0.503;exitDx=0;exitDy=0;exitPerimeter=0;entryX=0.084;entryY=0.817;entryDx=0;entryDy=0;entryPerimeter=0;" parent="1" edge="1">
          <mxGeometry width="160" relative="1" as="geometry">
            <mxPoint x="2340" y="783" as="sourcePoint" />
            <mxPoint x="2489" y="750" as="targetPoint" />
          </mxGeometry>
        </mxCell>
        <mxCell id="NSzrFH0H3gAdwd_SfrIY-26" value="" style="endArrow=open;endFill=1;endSize=12;html=1;rounded=0;exitX=0.5;exitY=0.5;exitDx=0;exitDy=0;exitPerimeter=0;entryX=0.05;entryY=0.35;entryDx=0;entryDy=0;entryPerimeter=0;" parent="1" source="NSzrFH0H3gAdwd_SfrIY-3" target="NSzrFH0H3gAdwd_SfrIY-48" edge="1">
          <mxGeometry width="160" relative="1" as="geometry">
            <mxPoint x="490" y="1083" as="sourcePoint" />
            <mxPoint x="639" y="1050" as="targetPoint" />
          </mxGeometry>
        </mxCell>
        <mxCell id="NSzrFH0H3gAdwd_SfrIY-28" value="" style="endArrow=open;endFill=1;endSize=12;html=1;rounded=0;entryX=0.09;entryY=0.225;entryDx=0;entryDy=0;entryPerimeter=0;exitX=0.524;exitY=0.507;exitDx=0;exitDy=0;exitPerimeter=0;" parent="1" source="NSzrFH0H3gAdwd_SfrIY-3" target="NSzrFH0H3gAdwd_SfrIY-44" edge="1">
          <mxGeometry width="160" relative="1" as="geometry">
            <mxPoint x="430" y="640" as="sourcePoint" />
            <mxPoint x="639" y="910" as="targetPoint" />
          </mxGeometry>
        </mxCell>
        <mxCell id="NSzrFH0H3gAdwd_SfrIY-30" value="" style="endArrow=open;endFill=1;endSize=12;html=1;rounded=0;exitX=0.5;exitY=0.5;exitDx=0;exitDy=0;exitPerimeter=0;entryX=0;entryY=0.5;entryDx=0;entryDy=0;" parent="1" source="NSzrFH0H3gAdwd_SfrIY-3" target="NSzrFH0H3gAdwd_SfrIY-22" edge="1">
          <mxGeometry width="160" relative="1" as="geometry">
            <mxPoint x="490" y="783" as="sourcePoint" />
            <mxPoint x="639" y="750" as="targetPoint" />
          </mxGeometry>
        </mxCell>
        <mxCell id="NSzrFH0H3gAdwd_SfrIY-31" value="" style="endArrow=open;endFill=1;endSize=12;html=1;rounded=0;entryX=0;entryY=0.5;entryDx=0;entryDy=0;exitX=0.5;exitY=0.5;exitDx=0;exitDy=0;exitPerimeter=0;" parent="1" source="NSzrFH0H3gAdwd_SfrIY-3" target="NSzrFH0H3gAdwd_SfrIY-19" edge="1">
          <mxGeometry width="160" relative="1" as="geometry">
            <mxPoint x="500" y="703" as="sourcePoint" />
            <mxPoint x="649" y="670" as="targetPoint" />
          </mxGeometry>
        </mxCell>
        <mxCell id="NSzrFH0H3gAdwd_SfrIY-29" value="" style="endArrow=open;endFill=1;endSize=12;html=1;rounded=0;entryX=0.026;entryY=0.362;entryDx=0;entryDy=0;entryPerimeter=0;exitX=0.5;exitY=0.5;exitDx=0;exitDy=0;exitPerimeter=0;" parent="1" source="NSzrFH0H3gAdwd_SfrIY-3" target="NSzrFH0H3gAdwd_SfrIY-45" edge="1">
          <mxGeometry width="160" relative="1" as="geometry">
            <mxPoint x="430" y="630" as="sourcePoint" />
            <mxPoint x="649" y="838.5" as="targetPoint" />
          </mxGeometry>
        </mxCell>
        <mxCell id="NSzrFH0H3gAdwd_SfrIY-27" value="" style="endArrow=open;endFill=1;endSize=12;html=1;rounded=0;exitX=0.5;exitY=0.5;exitDx=0;exitDy=0;exitPerimeter=0;entryX=0.029;entryY=0.298;entryDx=0;entryDy=0;entryPerimeter=0;" parent="1" source="NSzrFH0H3gAdwd_SfrIY-3" target="NSzrFH0H3gAdwd_SfrIY-46" edge="1">
          <mxGeometry width="160" relative="1" as="geometry">
            <mxPoint x="480" y="1021.5" as="sourcePoint" />
            <mxPoint x="629" y="988.5" as="targetPoint" />
          </mxGeometry>
        </mxCell>
        <mxCell id="NSzrFH0H3gAdwd_SfrIY-52" value="Admin" style="shape=umlActor;verticalLabelPosition=bottom;verticalAlign=top;html=1;outlineConnect=0;" parent="1" vertex="1">
          <mxGeometry x="1470" y="920" width="70" height="140" as="geometry" />
        </mxCell>
        <mxCell id="NSzrFH0H3gAdwd_SfrIY-53" value="System Bot" style="shape=umlActor;verticalLabelPosition=bottom;verticalAlign=top;html=1;outlineConnect=0;" parent="1" vertex="1">
          <mxGeometry x="1460" y="420" width="70" height="140" as="geometry" />
        </mxCell>
        <mxCell id="NSzrFH0H3gAdwd_SfrIY-55" value="" style="endArrow=open;endFill=1;endSize=12;html=1;rounded=0;exitX=0.5;exitY=0.5;exitDx=0;exitDy=0;exitPerimeter=0;entryX=0;entryY=0;entryDx=0;entryDy=0;" parent="1" edge="1" target="NSzrFH0H3gAdwd_SfrIY-65" source="NSzrFH0H3gAdwd_SfrIY-3">
          <mxGeometry width="160" relative="1" as="geometry">
            <mxPoint x="400" y="1060" as="sourcePoint" />
            <mxPoint x="549" y="1027" as="targetPoint" />
          </mxGeometry>
        </mxCell>
        <mxCell id="NSzrFH0H3gAdwd_SfrIY-59" value="" style="endArrow=open;endFill=1;endSize=12;html=1;rounded=0;entryX=1;entryY=0.5;entryDx=0;entryDy=0;exitX=0.5;exitY=0.5;exitDx=0;exitDy=0;exitPerimeter=0;" parent="1" source="NSzrFH0H3gAdwd_SfrIY-52" target="NSzrFH0H3gAdwd_SfrIY-49" edge="1">
          <mxGeometry width="160" relative="1" as="geometry">
            <mxPoint x="920" y="1013" as="sourcePoint" />
            <mxPoint x="1069" y="980" as="targetPoint" />
          </mxGeometry>
        </mxCell>
        <mxCell id="NSzrFH0H3gAdwd_SfrIY-74" value="Extends" style="endArrow=block;endSize=16;endFill=0;html=1;rounded=0;entryX=0.007;entryY=0.332;entryDx=0;entryDy=0;entryPerimeter=0;exitX=0.91;exitY=0.772;exitDx=0;exitDy=0;exitPerimeter=0;" parent="1" edge="1">
          <mxGeometry width="160" relative="1" as="geometry">
            <mxPoint x="2370" y="870" as="sourcePoint" />
            <mxPoint x="2466" y="924" as="targetPoint" />
          </mxGeometry>
        </mxCell>
        <mxCell id="NSzrFH0H3gAdwd_SfrIY-89" value="" style="endArrow=open;endFill=1;endSize=12;html=1;rounded=0;entryX=1;entryY=0.5;entryDx=0;entryDy=0;exitX=0.5;exitY=0.5;exitDx=0;exitDy=0;exitPerimeter=0;" parent="1" source="NSzrFH0H3gAdwd_SfrIY-52" target="NSzrFH0H3gAdwd_SfrIY-85" edge="1">
          <mxGeometry width="160" relative="1" as="geometry">
            <mxPoint x="1460" y="1080" as="sourcePoint" />
            <mxPoint x="1268" y="957" as="targetPoint" />
          </mxGeometry>
        </mxCell>
        <mxCell id="NSzrFH0H3gAdwd_SfrIY-88" value="" style="endArrow=open;endFill=1;endSize=12;html=1;rounded=0;entryX=1;entryY=0.5;entryDx=0;entryDy=0;exitX=0.5;exitY=0.5;exitDx=0;exitDy=0;exitPerimeter=0;" parent="1" source="NSzrFH0H3gAdwd_SfrIY-52" target="NSzrFH0H3gAdwd_SfrIY-84" edge="1">
          <mxGeometry width="160" relative="1" as="geometry">
            <mxPoint x="1475" y="1310" as="sourcePoint" />
            <mxPoint x="1270" y="980" as="targetPoint" />
          </mxGeometry>
        </mxCell>
        <mxCell id="NSzrFH0H3gAdwd_SfrIY-87" value="" style="endArrow=open;endFill=1;endSize=12;html=1;rounded=0;entryX=1;entryY=0.5;entryDx=0;entryDy=0;exitX=0.5;exitY=0.5;exitDx=0;exitDy=0;exitPerimeter=0;" parent="1" source="NSzrFH0H3gAdwd_SfrIY-52" target="NSzrFH0H3gAdwd_SfrIY-86" edge="1">
          <mxGeometry width="160" relative="1" as="geometry">
            <mxPoint x="1475" y="1310" as="sourcePoint" />
            <mxPoint x="1330" y="1220" as="targetPoint" />
          </mxGeometry>
        </mxCell>
        <mxCell id="NSzrFH0H3gAdwd_SfrIY-90" value="" style="endArrow=open;endFill=1;endSize=12;html=1;rounded=0;exitX=0.5;exitY=0.5;exitDx=0;exitDy=0;exitPerimeter=0;entryX=0;entryY=0;entryDx=0;entryDy=0;" parent="1" source="NSzrFH0H3gAdwd_SfrIY-3" target="NSzrFH0H3gAdwd_SfrIY-63" edge="1">
          <mxGeometry width="160" relative="1" as="geometry">
            <mxPoint x="395" y="680" as="sourcePoint" />
            <mxPoint x="705" y="1065" as="targetPoint" />
          </mxGeometry>
        </mxCell>
        <mxCell id="NSzrFH0H3gAdwd_SfrIY-91" value="Extends" style="endArrow=block;endSize=16;endFill=0;html=1;rounded=0;entryX=0.007;entryY=0.332;entryDx=0;entryDy=0;entryPerimeter=0;exitX=0.91;exitY=0.772;exitDx=0;exitDy=0;exitPerimeter=0;" parent="1" edge="1">
          <mxGeometry width="160" relative="1" as="geometry">
            <mxPoint x="2380" y="880" as="sourcePoint" />
            <mxPoint x="2476" y="934" as="targetPoint" />
          </mxGeometry>
        </mxCell>
        <mxCell id="NSzrFH0H3gAdwd_SfrIY-92" value="Extends" style="endArrow=block;endSize=16;endFill=0;html=1;rounded=0;entryX=0.007;entryY=0.332;entryDx=0;entryDy=0;entryPerimeter=0;exitX=0.91;exitY=0.772;exitDx=0;exitDy=0;exitPerimeter=0;" parent="1" edge="1">
          <mxGeometry width="160" relative="1" as="geometry">
            <mxPoint x="2390" y="890" as="sourcePoint" />
            <mxPoint x="2486" y="944" as="targetPoint" />
          </mxGeometry>
        </mxCell>
        <mxCell id="NSzrFH0H3gAdwd_SfrIY-62" value="Create Portfolio" style="ellipse;whiteSpace=wrap;html=1;" parent="1" vertex="1">
          <mxGeometry x="2170" y="1180" width="90" height="70" as="geometry" />
        </mxCell>
        <mxCell id="NSzrFH0H3gAdwd_SfrIY-96" value="" style="endArrow=open;endFill=1;endSize=12;html=1;rounded=0;exitX=0.55;exitY=0.503;exitDx=0;exitDy=0;exitPerimeter=0;entryX=0.084;entryY=0.817;entryDx=0;entryDy=0;entryPerimeter=0;" parent="1" edge="1">
          <mxGeometry width="160" relative="1" as="geometry">
            <mxPoint y="1423" as="sourcePoint" />
            <mxPoint x="149" y="1390" as="targetPoint" />
          </mxGeometry>
        </mxCell>
        <mxCell id="NSzrFH0H3gAdwd_SfrIY-97" value="" style="endArrow=open;endFill=1;endSize=12;html=1;rounded=0;exitX=0.55;exitY=0.503;exitDx=0;exitDy=0;exitPerimeter=0;entryX=0.084;entryY=0.817;entryDx=0;entryDy=0;entryPerimeter=0;" parent="1" edge="1">
          <mxGeometry width="160" relative="1" as="geometry">
            <mxPoint x="10" y="1433" as="sourcePoint" />
            <mxPoint x="159" y="1400" as="targetPoint" />
          </mxGeometry>
        </mxCell>
        <mxCell id="NSzrFH0H3gAdwd_SfrIY-94" value="Predict Price" style="ellipse;whiteSpace=wrap;html=1;" parent="1" vertex="1">
          <mxGeometry x="1270" y="430" width="90" height="70" as="geometry" />
        </mxCell>
        <mxCell id="NSzrFH0H3gAdwd_SfrIY-98" value="" style="endArrow=open;endFill=1;endSize=12;html=1;rounded=0;entryX=1;entryY=0.5;entryDx=0;entryDy=0;exitX=0.5;exitY=0.5;exitDx=0;exitDy=0;exitPerimeter=0;" parent="1" source="NSzrFH0H3gAdwd_SfrIY-53" target="NSzrFH0H3gAdwd_SfrIY-94" edge="1">
          <mxGeometry width="160" relative="1" as="geometry">
            <mxPoint x="1141" y="600" as="sourcePoint" />
            <mxPoint x="1409.3861418419638" y="570.0021117542746" as="targetPoint" />
          </mxGeometry>
        </mxCell>
        <mxCell id="gyJNxoxZwy5CsyFpe8hy-21" value="Extedns" style="endArrow=open;endSize=12;dashed=1;html=1;rounded=0;" parent="1" edge="1">
          <mxGeometry width="160" relative="1" as="geometry">
            <mxPoint x="690" y="1480" as="sourcePoint" />
            <mxPoint x="850" y="1480" as="targetPoint" />
          </mxGeometry>
        </mxCell>
        <mxCell id="gyJNxoxZwy5CsyFpe8hy-22" value="Extedns" style="endArrow=open;endSize=12;dashed=1;html=1;rounded=0;" parent="1" edge="1">
          <mxGeometry width="160" relative="1" as="geometry">
            <mxPoint x="700" y="1490" as="sourcePoint" />
            <mxPoint x="860" y="1490" as="targetPoint" />
          </mxGeometry>
        </mxCell>
        <mxCell id="gyJNxoxZwy5CsyFpe8hy-23" value="Extedns" style="endArrow=open;endSize=12;dashed=1;html=1;rounded=0;" parent="1" edge="1">
          <mxGeometry width="160" relative="1" as="geometry">
            <mxPoint x="710" y="1500" as="sourcePoint" />
            <mxPoint x="870" y="1500" as="targetPoint" />
          </mxGeometry>
        </mxCell>
        <mxCell id="gyJNxoxZwy5CsyFpe8hy-24" value="Extedns" style="endArrow=open;endSize=12;dashed=1;html=1;rounded=0;" parent="1" edge="1">
          <mxGeometry width="160" relative="1" as="geometry">
            <mxPoint x="720" y="1510" as="sourcePoint" />
            <mxPoint x="880" y="1510" as="targetPoint" />
          </mxGeometry>
        </mxCell>
        <mxCell id="gyJNxoxZwy5CsyFpe8hy-25" value="Extedns" style="endArrow=open;endSize=12;dashed=1;html=1;rounded=0;" parent="1" edge="1">
          <mxGeometry width="160" relative="1" as="geometry">
            <mxPoint x="730" y="1520" as="sourcePoint" />
            <mxPoint x="890" y="1520" as="targetPoint" />
          </mxGeometry>
        </mxCell>
        <mxCell id="gyJNxoxZwy5CsyFpe8hy-26" value="Extedns" style="endArrow=open;endSize=12;dashed=1;html=1;rounded=0;" parent="1" edge="1">
          <mxGeometry width="160" relative="1" as="geometry">
            <mxPoint x="740" y="1530" as="sourcePoint" />
            <mxPoint x="900" y="1530" as="targetPoint" />
          </mxGeometry>
        </mxCell>
        <mxCell id="gyJNxoxZwy5CsyFpe8hy-17" value="Extedns" style="endArrow=open;endSize=12;dashed=1;html=1;rounded=0;entryX=0;entryY=0;entryDx=0;entryDy=0;exitX=1;exitY=0.5;exitDx=0;exitDy=0;" parent="1" source="NSzrFH0H3gAdwd_SfrIY-64" target="NSzrFH0H3gAdwd_SfrIY-94" edge="1">
          <mxGeometry width="160" relative="1" as="geometry">
            <mxPoint x="1200" y="404.67999999999995" as="sourcePoint" />
            <mxPoint x="1360" y="404.67999999999995" as="targetPoint" />
          </mxGeometry>
        </mxCell>
        <mxCell id="gyJNxoxZwy5CsyFpe8hy-18" value="Extedns" style="endArrow=open;endSize=12;dashed=1;html=1;rounded=0;exitX=1;exitY=0.5;exitDx=0;exitDy=0;entryX=0;entryY=0.5;entryDx=0;entryDy=0;" parent="1" source="NSzrFH0H3gAdwd_SfrIY-95" target="NSzrFH0H3gAdwd_SfrIY-94" edge="1">
          <mxGeometry width="160" relative="1" as="geometry">
            <mxPoint x="1170" y="599.68" as="sourcePoint" />
            <mxPoint x="1330" y="599.68" as="targetPoint" />
          </mxGeometry>
        </mxCell>
        <mxCell id="xCD8gJaUAP0PvVdxfNOr-1" value="Create Portfolio" style="ellipse;whiteSpace=wrap;html=1;" vertex="1" parent="1">
          <mxGeometry x="170" y="1460" width="90" height="70" as="geometry" />
        </mxCell>
        <mxCell id="xCD8gJaUAP0PvVdxfNOr-2" value="Create Portfolio" style="ellipse;whiteSpace=wrap;html=1;" vertex="1" parent="1">
          <mxGeometry x="180" y="1470" width="90" height="70" as="geometry" />
        </mxCell>
        <mxCell id="xCD8gJaUAP0PvVdxfNOr-3" value="Create Portfolio" style="ellipse;whiteSpace=wrap;html=1;" vertex="1" parent="1">
          <mxGeometry x="190" y="1480" width="90" height="70" as="geometry" />
        </mxCell>
      </root>
    </mxGraphModel>
  </diagram>
  <diagram id="1Nmur8SmDnYN-PauhvM6" name="Page-2">
    <mxGraphModel dx="954" dy="626" grid="1" gridSize="10" guides="1" tooltips="1" connect="1" arrows="1" fold="1" page="1" pageScale="1" pageWidth="850" pageHeight="1100" math="0" shadow="0">
      <root>
        <mxCell id="0" />
        <mxCell id="1" parent="0" />
        <mxCell id="-VxAkrDXX86SFEOjTzRP-1" value="" style="swimlane;startSize=0;" parent="1" vertex="1">
          <mxGeometry x="1090" y="320" width="790" height="980" as="geometry" />
        </mxCell>
        <mxCell id="-VxAkrDXX86SFEOjTzRP-2" value="Sign in" style="ellipse;whiteSpace=wrap;html=1;" parent="-VxAkrDXX86SFEOjTzRP-1" vertex="1">
          <mxGeometry x="70" y="40" width="90" height="70" as="geometry" />
        </mxCell>
        <mxCell id="-VxAkrDXX86SFEOjTzRP-3" value="Start Simulation" style="ellipse;whiteSpace=wrap;html=1;" parent="-VxAkrDXX86SFEOjTzRP-1" vertex="1">
          <mxGeometry x="90" y="370" width="90" height="70" as="geometry" />
        </mxCell>
        <mxCell id="-VxAkrDXX86SFEOjTzRP-4" value="Edit Password" style="ellipse;whiteSpace=wrap;html=1;" parent="-VxAkrDXX86SFEOjTzRP-1" vertex="1">
          <mxGeometry x="410" y="290" width="70" height="60" as="geometry" />
        </mxCell>
        <mxCell id="-VxAkrDXX86SFEOjTzRP-5" value="Sign up" style="ellipse;whiteSpace=wrap;html=1;" parent="-VxAkrDXX86SFEOjTzRP-1" vertex="1">
          <mxGeometry x="70" y="130" width="90" height="70" as="geometry" />
        </mxCell>
        <mxCell id="-VxAkrDXX86SFEOjTzRP-6" value="View Profile" style="ellipse;whiteSpace=wrap;html=1;" parent="-VxAkrDXX86SFEOjTzRP-1" vertex="1">
          <mxGeometry x="40" y="295" width="90" height="70" as="geometry" />
        </mxCell>
        <mxCell id="-VxAkrDXX86SFEOjTzRP-7" value="Sign out" style="ellipse;whiteSpace=wrap;html=1;" parent="-VxAkrDXX86SFEOjTzRP-1" vertex="1">
          <mxGeometry x="60" y="210" width="90" height="70" as="geometry" />
        </mxCell>
        <mxCell id="-VxAkrDXX86SFEOjTzRP-8" value="" style="endArrow=open;endFill=1;endSize=12;html=1;rounded=0;exitX=0.5;exitY=0.5;exitDx=0;exitDy=0;exitPerimeter=0;entryX=0.084;entryY=0.817;entryDx=0;entryDy=0;entryPerimeter=0;" parent="-VxAkrDXX86SFEOjTzRP-1" source="-VxAkrDXX86SFEOjTzRP-42" edge="1">
          <mxGeometry width="160" relative="1" as="geometry">
            <mxPoint x="-89" y="273" as="sourcePoint" />
            <mxPoint x="60" y="240" as="targetPoint" />
          </mxGeometry>
        </mxCell>
        <mxCell id="-VxAkrDXX86SFEOjTzRP-9" value="Edit First Name" style="ellipse;whiteSpace=wrap;html=1;" parent="-VxAkrDXX86SFEOjTzRP-1" vertex="1">
          <mxGeometry x="180" y="190" width="70" height="60" as="geometry" />
        </mxCell>
        <mxCell id="-VxAkrDXX86SFEOjTzRP-10" value="Edit Profile" style="ellipse;whiteSpace=wrap;html=1;" parent="-VxAkrDXX86SFEOjTzRP-1" vertex="1">
          <mxGeometry x="220" y="330" width="70" height="60" as="geometry" />
        </mxCell>
        <mxCell id="-VxAkrDXX86SFEOjTzRP-11" value="Edit Last Name" style="ellipse;whiteSpace=wrap;html=1;" parent="-VxAkrDXX86SFEOjTzRP-1" vertex="1">
          <mxGeometry x="280" y="180" width="70" height="60" as="geometry" />
        </mxCell>
        <mxCell id="-VxAkrDXX86SFEOjTzRP-12" value="Edit E-mail" style="ellipse;whiteSpace=wrap;html=1;" parent="-VxAkrDXX86SFEOjTzRP-1" vertex="1">
          <mxGeometry x="350" y="230" width="70" height="60" as="geometry" />
        </mxCell>
        <mxCell id="-VxAkrDXX86SFEOjTzRP-13" value="Extends" style="endArrow=block;endSize=16;endFill=0;html=1;rounded=0;entryX=1.003;entryY=0.563;entryDx=0;entryDy=0;entryPerimeter=0;exitX=0;exitY=0.5;exitDx=0;exitDy=0;" parent="-VxAkrDXX86SFEOjTzRP-1" source="-VxAkrDXX86SFEOjTzRP-10" target="-VxAkrDXX86SFEOjTzRP-6" edge="1">
          <mxGeometry width="160" relative="1" as="geometry">
            <mxPoint x="130" y="340" as="sourcePoint" />
            <mxPoint x="290" y="340" as="targetPoint" />
          </mxGeometry>
        </mxCell>
        <mxCell id="-VxAkrDXX86SFEOjTzRP-14" value="Extends" style="endArrow=block;endSize=16;endFill=0;html=1;rounded=0;entryX=0;entryY=0;entryDx=0;entryDy=0;exitX=0.5;exitY=1;exitDx=0;exitDy=0;" parent="-VxAkrDXX86SFEOjTzRP-1" source="-VxAkrDXX86SFEOjTzRP-9" target="-VxAkrDXX86SFEOjTzRP-10" edge="1">
          <mxGeometry width="160" relative="1" as="geometry">
            <mxPoint x="160" y="370" as="sourcePoint" />
            <mxPoint x="256" y="410" as="targetPoint" />
          </mxGeometry>
        </mxCell>
        <mxCell id="-VxAkrDXX86SFEOjTzRP-15" value="Extends" style="endArrow=block;endSize=16;endFill=0;html=1;rounded=0;entryX=0.992;entryY=0.406;entryDx=0;entryDy=0;entryPerimeter=0;exitX=0.1;exitY=0.874;exitDx=0;exitDy=0;exitPerimeter=0;" parent="-VxAkrDXX86SFEOjTzRP-1" source="-VxAkrDXX86SFEOjTzRP-12" target="-VxAkrDXX86SFEOjTzRP-10" edge="1">
          <mxGeometry width="160" relative="1" as="geometry">
            <mxPoint x="246" y="360" as="sourcePoint" />
            <mxPoint x="150" y="320" as="targetPoint" />
          </mxGeometry>
        </mxCell>
        <mxCell id="-VxAkrDXX86SFEOjTzRP-16" value="Extends" style="endArrow=block;endSize=16;endFill=0;html=1;rounded=0;entryX=0.999;entryY=0.611;entryDx=0;entryDy=0;entryPerimeter=0;exitX=-0.012;exitY=0.565;exitDx=0;exitDy=0;exitPerimeter=0;" parent="-VxAkrDXX86SFEOjTzRP-1" source="-VxAkrDXX86SFEOjTzRP-4" target="-VxAkrDXX86SFEOjTzRP-10" edge="1">
          <mxGeometry width="160" relative="1" as="geometry">
            <mxPoint x="310" y="370" as="sourcePoint" />
            <mxPoint x="214" y="330" as="targetPoint" />
          </mxGeometry>
        </mxCell>
        <mxCell id="-VxAkrDXX86SFEOjTzRP-17" value="Extends" style="endArrow=block;endSize=16;endFill=0;html=1;rounded=0;entryX=0.86;entryY=0.169;entryDx=0;entryDy=0;exitX=0.5;exitY=1;exitDx=0;exitDy=0;entryPerimeter=0;" parent="-VxAkrDXX86SFEOjTzRP-1" source="-VxAkrDXX86SFEOjTzRP-11" target="-VxAkrDXX86SFEOjTzRP-10" edge="1">
          <mxGeometry width="160" relative="1" as="geometry">
            <mxPoint x="368" y="308" as="sourcePoint" />
            <mxPoint x="280" y="340" as="targetPoint" />
          </mxGeometry>
        </mxCell>
        <mxCell id="-VxAkrDXX86SFEOjTzRP-18" value="Create Portfolio" style="ellipse;whiteSpace=wrap;html=1;" parent="-VxAkrDXX86SFEOjTzRP-1" vertex="1">
          <mxGeometry x="90" y="600" width="90" height="70" as="geometry" />
        </mxCell>
        <mxCell id="-VxAkrDXX86SFEOjTzRP-19" value="Skip Time" style="ellipse;whiteSpace=wrap;html=1;" parent="-VxAkrDXX86SFEOjTzRP-1" vertex="1">
          <mxGeometry x="80" y="450" width="90" height="70" as="geometry" />
        </mxCell>
        <mxCell id="-VxAkrDXX86SFEOjTzRP-20" value="Stop Simulation" style="ellipse;whiteSpace=wrap;html=1;" parent="-VxAkrDXX86SFEOjTzRP-1" vertex="1">
          <mxGeometry x="110" y="530" width="90" height="70" as="geometry" />
        </mxCell>
        <mxCell id="-VxAkrDXX86SFEOjTzRP-21" value="Change Balance" style="ellipse;whiteSpace=wrap;html=1;" parent="-VxAkrDXX86SFEOjTzRP-1" vertex="1">
          <mxGeometry x="290" y="780" width="90" height="70" as="geometry" />
        </mxCell>
        <mxCell id="-VxAkrDXX86SFEOjTzRP-22" value="View Accounts" style="ellipse;whiteSpace=wrap;html=1;" parent="-VxAkrDXX86SFEOjTzRP-1" vertex="1">
          <mxGeometry x="660" y="610" width="90" height="70" as="geometry" />
        </mxCell>
        <mxCell id="-VxAkrDXX86SFEOjTzRP-23" value="Reset Portfolio" style="ellipse;whiteSpace=wrap;html=1;" parent="-VxAkrDXX86SFEOjTzRP-1" vertex="1">
          <mxGeometry x="90" y="680" width="90" height="70" as="geometry" />
        </mxCell>
        <mxCell id="-VxAkrDXX86SFEOjTzRP-24" value="Delete Account" style="ellipse;whiteSpace=wrap;html=1;" parent="-VxAkrDXX86SFEOjTzRP-1" vertex="1">
          <mxGeometry x="230" y="500" width="90" height="70" as="geometry" />
        </mxCell>
        <mxCell id="-VxAkrDXX86SFEOjTzRP-25" value="Select Account" style="ellipse;whiteSpace=wrap;html=1;" parent="-VxAkrDXX86SFEOjTzRP-1" vertex="1">
          <mxGeometry x="450" y="610" width="90" height="70" as="geometry" />
        </mxCell>
        <mxCell id="-VxAkrDXX86SFEOjTzRP-26" value="Delete Portfolio" style="ellipse;whiteSpace=wrap;html=1;" parent="-VxAkrDXX86SFEOjTzRP-1" vertex="1">
          <mxGeometry x="80" y="760" width="90" height="70" as="geometry" />
        </mxCell>
        <mxCell id="-VxAkrDXX86SFEOjTzRP-27" value="Extends" style="endArrow=block;endSize=16;endFill=0;html=1;rounded=0;entryX=0;entryY=0;entryDx=0;entryDy=0;exitX=1;exitY=0.5;exitDx=0;exitDy=0;" parent="-VxAkrDXX86SFEOjTzRP-1" source="-VxAkrDXX86SFEOjTzRP-24" target="-VxAkrDXX86SFEOjTzRP-25" edge="1">
          <mxGeometry width="160" relative="1" as="geometry">
            <mxPoint x="476" y="654" as="sourcePoint" />
            <mxPoint x="380" y="600" as="targetPoint" />
          </mxGeometry>
        </mxCell>
        <mxCell id="-VxAkrDXX86SFEOjTzRP-28" value="Extends" style="endArrow=block;endSize=16;endFill=0;html=1;rounded=0;entryX=0.5;entryY=0;entryDx=0;entryDy=0;exitX=0.5;exitY=1;exitDx=0;exitDy=0;" parent="-VxAkrDXX86SFEOjTzRP-1" source="-VxAkrDXX86SFEOjTzRP-10" target="-VxAkrDXX86SFEOjTzRP-25" edge="1">
          <mxGeometry width="160" relative="1" as="geometry">
            <mxPoint x="503" y="494" as="sourcePoint" />
            <mxPoint x="407" y="440" as="targetPoint" />
          </mxGeometry>
        </mxCell>
        <mxCell id="-VxAkrDXX86SFEOjTzRP-29" value="Extends" style="endArrow=block;endSize=16;endFill=0;html=1;rounded=0;entryX=0;entryY=0.5;entryDx=0;entryDy=0;exitX=1;exitY=0.5;exitDx=0;exitDy=0;" parent="-VxAkrDXX86SFEOjTzRP-1" source="-VxAkrDXX86SFEOjTzRP-23" target="-VxAkrDXX86SFEOjTzRP-25" edge="1">
          <mxGeometry width="160" relative="1" as="geometry">
            <mxPoint x="363" y="714" as="sourcePoint" />
            <mxPoint x="267" y="660" as="targetPoint" />
          </mxGeometry>
        </mxCell>
        <mxCell id="-VxAkrDXX86SFEOjTzRP-30" value="Extends" style="endArrow=block;endSize=16;endFill=0;html=1;rounded=0;entryX=0.053;entryY=0.271;entryDx=0;entryDy=0;exitX=1;exitY=0.5;exitDx=0;exitDy=0;entryPerimeter=0;" parent="-VxAkrDXX86SFEOjTzRP-1" source="-VxAkrDXX86SFEOjTzRP-18" target="-VxAkrDXX86SFEOjTzRP-25" edge="1">
          <mxGeometry width="160" relative="1" as="geometry">
            <mxPoint x="336" y="662" as="sourcePoint" />
            <mxPoint x="240" y="608" as="targetPoint" />
          </mxGeometry>
        </mxCell>
        <mxCell id="-VxAkrDXX86SFEOjTzRP-31" value="Extends" style="endArrow=block;endSize=16;endFill=0;html=1;rounded=0;entryX=0.5;entryY=1;entryDx=0;entryDy=0;exitX=1;exitY=0;exitDx=0;exitDy=0;" parent="-VxAkrDXX86SFEOjTzRP-1" source="-VxAkrDXX86SFEOjTzRP-21" target="-VxAkrDXX86SFEOjTzRP-25" edge="1">
          <mxGeometry width="160" relative="1" as="geometry">
            <mxPoint x="646" y="770" as="sourcePoint" />
            <mxPoint x="550" y="716" as="targetPoint" />
          </mxGeometry>
        </mxCell>
        <mxCell id="-VxAkrDXX86SFEOjTzRP-32" value="Edit Username" style="ellipse;whiteSpace=wrap;html=1;" parent="-VxAkrDXX86SFEOjTzRP-1" vertex="1">
          <mxGeometry x="410" y="360" width="70" height="60" as="geometry" />
        </mxCell>
        <mxCell id="-VxAkrDXX86SFEOjTzRP-33" value="Extends" style="endArrow=block;endSize=16;endFill=0;html=1;rounded=0;entryX=1;entryY=1;entryDx=0;entryDy=0;exitX=0;exitY=0.5;exitDx=0;exitDy=0;" parent="-VxAkrDXX86SFEOjTzRP-1" source="-VxAkrDXX86SFEOjTzRP-32" target="-VxAkrDXX86SFEOjTzRP-10" edge="1">
          <mxGeometry width="160" relative="1" as="geometry">
            <mxPoint x="419" y="334" as="sourcePoint" />
            <mxPoint x="300" y="377" as="targetPoint" />
          </mxGeometry>
        </mxCell>
        <mxCell id="-VxAkrDXX86SFEOjTzRP-34" value="Extends" style="endArrow=block;endSize=16;endFill=0;html=1;rounded=0;entryX=0;entryY=0.5;entryDx=0;entryDy=0;exitX=1;exitY=0.5;exitDx=0;exitDy=0;" parent="-VxAkrDXX86SFEOjTzRP-1" source="-VxAkrDXX86SFEOjTzRP-25" target="-VxAkrDXX86SFEOjTzRP-22" edge="1">
          <mxGeometry width="160" relative="1" as="geometry">
            <mxPoint x="596" y="524" as="sourcePoint" />
            <mxPoint x="500" y="470" as="targetPoint" />
          </mxGeometry>
        </mxCell>
        <mxCell id="-VxAkrDXX86SFEOjTzRP-35" value="Sign in" style="ellipse;whiteSpace=wrap;html=1;" parent="-VxAkrDXX86SFEOjTzRP-1" vertex="1">
          <mxGeometry x="650" y="690" width="90" height="70" as="geometry" />
        </mxCell>
        <mxCell id="-VxAkrDXX86SFEOjTzRP-36" value="Sign up" style="ellipse;whiteSpace=wrap;html=1;" parent="-VxAkrDXX86SFEOjTzRP-1" vertex="1">
          <mxGeometry x="670" y="530" width="90" height="70" as="geometry" />
        </mxCell>
        <mxCell id="-VxAkrDXX86SFEOjTzRP-37" value="Sign out" style="ellipse;whiteSpace=wrap;html=1;" parent="-VxAkrDXX86SFEOjTzRP-1" vertex="1">
          <mxGeometry x="660" y="780" width="90" height="70" as="geometry" />
        </mxCell>
        <mxCell id="-VxAkrDXX86SFEOjTzRP-38" value="Extends" style="endArrow=block;endSize=16;endFill=0;html=1;rounded=0;exitX=1;exitY=0.5;exitDx=0;exitDy=0;entryX=0;entryY=1;entryDx=0;entryDy=0;" parent="-VxAkrDXX86SFEOjTzRP-1" source="-VxAkrDXX86SFEOjTzRP-26" target="-VxAkrDXX86SFEOjTzRP-25" edge="1">
          <mxGeometry width="160" relative="1" as="geometry">
            <mxPoint x="466" y="794" as="sourcePoint" />
            <mxPoint x="370" y="740" as="targetPoint" />
          </mxGeometry>
        </mxCell>
        <mxCell id="-VxAkrDXX86SFEOjTzRP-39" value="Buy Stock" style="ellipse;whiteSpace=wrap;html=1;" parent="-VxAkrDXX86SFEOjTzRP-1" vertex="1">
          <mxGeometry x="660" y="20" width="90" height="70" as="geometry" />
        </mxCell>
        <mxCell id="-VxAkrDXX86SFEOjTzRP-40" value="Sell Stock" style="ellipse;whiteSpace=wrap;html=1;" parent="-VxAkrDXX86SFEOjTzRP-1" vertex="1">
          <mxGeometry x="650" y="100" width="90" height="70" as="geometry" />
        </mxCell>
        <mxCell id="-VxAkrDXX86SFEOjTzRP-41" value="Predict Price" style="ellipse;whiteSpace=wrap;html=1;" parent="-VxAkrDXX86SFEOjTzRP-1" vertex="1">
          <mxGeometry x="80" y="840" width="90" height="70" as="geometry" />
        </mxCell>
        <mxCell id="-VxAkrDXX86SFEOjTzRP-42" value="User&lt;br&gt;" style="shape=umlActor;verticalLabelPosition=bottom;verticalAlign=top;html=1;outlineConnect=0;" parent="1" vertex="1">
          <mxGeometry x="820" y="640" width="70" height="140" as="geometry" />
        </mxCell>
        <mxCell id="-VxAkrDXX86SFEOjTzRP-43" value="" style="endArrow=open;endFill=1;endSize=12;html=1;rounded=0;entryX=0.084;entryY=0.817;entryDx=0;entryDy=0;entryPerimeter=0;exitX=0.5;exitY=0.5;exitDx=0;exitDy=0;exitPerimeter=0;" parent="1" source="-VxAkrDXX86SFEOjTzRP-42" target="-VxAkrDXX86SFEOjTzRP-2" edge="1">
          <mxGeometry width="160" relative="1" as="geometry">
            <mxPoint x="1020" y="450" as="sourcePoint" />
            <mxPoint x="1180" y="450" as="targetPoint" />
          </mxGeometry>
        </mxCell>
        <mxCell id="-VxAkrDXX86SFEOjTzRP-44" value="" style="endArrow=open;endFill=1;endSize=12;html=1;rounded=0;exitX=0.5;exitY=0.5;exitDx=0;exitDy=0;exitPerimeter=0;entryX=0;entryY=0.5;entryDx=0;entryDy=0;" parent="1" source="-VxAkrDXX86SFEOjTzRP-42" target="-VxAkrDXX86SFEOjTzRP-5" edge="1">
          <mxGeometry width="160" relative="1" as="geometry">
            <mxPoint x="1029" y="460" as="sourcePoint" />
            <mxPoint x="1178" y="427" as="targetPoint" />
          </mxGeometry>
        </mxCell>
        <mxCell id="-VxAkrDXX86SFEOjTzRP-45" value="" style="endArrow=open;endFill=1;endSize=12;html=1;rounded=0;exitX=0.55;exitY=0.503;exitDx=0;exitDy=0;exitPerimeter=0;entryX=0.084;entryY=0.817;entryDx=0;entryDy=0;entryPerimeter=0;" parent="1" edge="1">
          <mxGeometry width="160" relative="1" as="geometry">
            <mxPoint x="2330" y="793" as="sourcePoint" />
            <mxPoint x="2479" y="760" as="targetPoint" />
          </mxGeometry>
        </mxCell>
        <mxCell id="-VxAkrDXX86SFEOjTzRP-46" value="" style="endArrow=open;endFill=1;endSize=12;html=1;rounded=0;exitX=0.5;exitY=0.5;exitDx=0;exitDy=0;exitPerimeter=0;entryX=0.05;entryY=0.35;entryDx=0;entryDy=0;entryPerimeter=0;" parent="1" source="-VxAkrDXX86SFEOjTzRP-42" target="-VxAkrDXX86SFEOjTzRP-23" edge="1">
          <mxGeometry width="160" relative="1" as="geometry">
            <mxPoint x="980" y="1053" as="sourcePoint" />
            <mxPoint x="1129" y="1020" as="targetPoint" />
          </mxGeometry>
        </mxCell>
        <mxCell id="-VxAkrDXX86SFEOjTzRP-47" value="" style="endArrow=open;endFill=1;endSize=12;html=1;rounded=0;entryX=0.09;entryY=0.225;entryDx=0;entryDy=0;entryPerimeter=0;exitX=0.524;exitY=0.507;exitDx=0;exitDy=0;exitPerimeter=0;" parent="1" source="-VxAkrDXX86SFEOjTzRP-42" target="-VxAkrDXX86SFEOjTzRP-20" edge="1">
          <mxGeometry width="160" relative="1" as="geometry">
            <mxPoint x="920" y="610" as="sourcePoint" />
            <mxPoint x="1129" y="880" as="targetPoint" />
          </mxGeometry>
        </mxCell>
        <mxCell id="-VxAkrDXX86SFEOjTzRP-48" value="" style="endArrow=open;endFill=1;endSize=12;html=1;rounded=0;exitX=0.5;exitY=0.5;exitDx=0;exitDy=0;exitPerimeter=0;entryX=0.077;entryY=0.243;entryDx=0;entryDy=0;entryPerimeter=0;" parent="1" source="-VxAkrDXX86SFEOjTzRP-42" target="-VxAkrDXX86SFEOjTzRP-3" edge="1">
          <mxGeometry width="160" relative="1" as="geometry">
            <mxPoint x="980" y="753" as="sourcePoint" />
            <mxPoint x="1129" y="720" as="targetPoint" />
          </mxGeometry>
        </mxCell>
        <mxCell id="-VxAkrDXX86SFEOjTzRP-49" value="" style="endArrow=open;endFill=1;endSize=12;html=1;rounded=0;entryX=0;entryY=0.5;entryDx=0;entryDy=0;exitX=0.5;exitY=0.5;exitDx=0;exitDy=0;exitPerimeter=0;" parent="1" source="-VxAkrDXX86SFEOjTzRP-42" target="-VxAkrDXX86SFEOjTzRP-6" edge="1">
          <mxGeometry width="160" relative="1" as="geometry">
            <mxPoint x="990" y="673" as="sourcePoint" />
            <mxPoint x="1139" y="640" as="targetPoint" />
          </mxGeometry>
        </mxCell>
        <mxCell id="-VxAkrDXX86SFEOjTzRP-50" value="" style="endArrow=open;endFill=1;endSize=12;html=1;rounded=0;entryX=0.026;entryY=0.362;entryDx=0;entryDy=0;entryPerimeter=0;exitX=0.5;exitY=0.5;exitDx=0;exitDy=0;exitPerimeter=0;" parent="1" source="-VxAkrDXX86SFEOjTzRP-42" target="-VxAkrDXX86SFEOjTzRP-19" edge="1">
          <mxGeometry width="160" relative="1" as="geometry">
            <mxPoint x="920" y="600" as="sourcePoint" />
            <mxPoint x="1139" y="808.5" as="targetPoint" />
          </mxGeometry>
        </mxCell>
        <mxCell id="-VxAkrDXX86SFEOjTzRP-51" value="" style="endArrow=open;endFill=1;endSize=12;html=1;rounded=0;exitX=0.5;exitY=0.5;exitDx=0;exitDy=0;exitPerimeter=0;entryX=0.029;entryY=0.298;entryDx=0;entryDy=0;entryPerimeter=0;" parent="1" source="-VxAkrDXX86SFEOjTzRP-42" target="-VxAkrDXX86SFEOjTzRP-18" edge="1">
          <mxGeometry width="160" relative="1" as="geometry">
            <mxPoint x="970" y="991.5" as="sourcePoint" />
            <mxPoint x="1119" y="958.5" as="targetPoint" />
          </mxGeometry>
        </mxCell>
        <mxCell id="-VxAkrDXX86SFEOjTzRP-52" value="Admin" style="shape=umlActor;verticalLabelPosition=bottom;verticalAlign=top;html=1;outlineConnect=0;" parent="1" vertex="1">
          <mxGeometry x="1960" y="890" width="70" height="140" as="geometry" />
        </mxCell>
        <mxCell id="-VxAkrDXX86SFEOjTzRP-53" value="System Bot" style="shape=umlActor;verticalLabelPosition=bottom;verticalAlign=top;html=1;outlineConnect=0;" parent="1" vertex="1">
          <mxGeometry x="1950" y="390" width="70" height="140" as="geometry" />
        </mxCell>
        <mxCell id="-VxAkrDXX86SFEOjTzRP-54" value="" style="endArrow=open;endFill=1;endSize=12;html=1;rounded=0;exitX=0.55;exitY=0.503;exitDx=0;exitDy=0;exitPerimeter=0;entryX=0.084;entryY=0.817;entryDx=0;entryDy=0;entryPerimeter=0;" parent="1" edge="1">
          <mxGeometry width="160" relative="1" as="geometry">
            <mxPoint x="600" y="1103" as="sourcePoint" />
            <mxPoint x="749" y="1070" as="targetPoint" />
          </mxGeometry>
        </mxCell>
        <mxCell id="-VxAkrDXX86SFEOjTzRP-55" value="" style="endArrow=open;endFill=1;endSize=12;html=1;rounded=0;entryX=1;entryY=0.5;entryDx=0;entryDy=0;exitX=0.5;exitY=0.5;exitDx=0;exitDy=0;exitPerimeter=0;" parent="1" source="-VxAkrDXX86SFEOjTzRP-52" target="-VxAkrDXX86SFEOjTzRP-22" edge="1">
          <mxGeometry width="160" relative="1" as="geometry">
            <mxPoint x="1410" y="983" as="sourcePoint" />
            <mxPoint x="1559" y="950" as="targetPoint" />
          </mxGeometry>
        </mxCell>
        <mxCell id="-VxAkrDXX86SFEOjTzRP-56" value="Create Portfolio" style="ellipse;whiteSpace=wrap;html=1;" parent="1" vertex="1">
          <mxGeometry x="770" y="1140" width="90" height="70" as="geometry" />
        </mxCell>
        <mxCell id="-VxAkrDXX86SFEOjTzRP-57" value="" style="endArrow=open;endFill=1;endSize=12;html=1;rounded=0;exitX=0.5;exitY=0.5;exitDx=0;exitDy=0;exitPerimeter=0;entryX=1;entryY=0.5;entryDx=0;entryDy=0;" parent="1" source="-VxAkrDXX86SFEOjTzRP-53" target="-VxAkrDXX86SFEOjTzRP-39" edge="1">
          <mxGeometry width="160" relative="1" as="geometry">
            <mxPoint x="1910.5" y="333" as="sourcePoint" />
            <mxPoint x="2059.5" y="300" as="targetPoint" />
          </mxGeometry>
        </mxCell>
        <mxCell id="-VxAkrDXX86SFEOjTzRP-58" value="Extends" style="endArrow=block;endSize=16;endFill=0;html=1;rounded=0;entryX=0.007;entryY=0.332;entryDx=0;entryDy=0;entryPerimeter=0;exitX=0.91;exitY=0.772;exitDx=0;exitDy=0;exitPerimeter=0;" parent="1" edge="1">
          <mxGeometry width="160" relative="1" as="geometry">
            <mxPoint x="2360" y="880" as="sourcePoint" />
            <mxPoint x="2456" y="934" as="targetPoint" />
          </mxGeometry>
        </mxCell>
        <mxCell id="-VxAkrDXX86SFEOjTzRP-59" value="" style="endArrow=open;endFill=1;endSize=12;html=1;rounded=0;entryX=1;entryY=0.5;entryDx=0;entryDy=0;exitX=0.5;exitY=0.5;exitDx=0;exitDy=0;exitPerimeter=0;" parent="1" source="-VxAkrDXX86SFEOjTzRP-52" target="-VxAkrDXX86SFEOjTzRP-36" edge="1">
          <mxGeometry width="160" relative="1" as="geometry">
            <mxPoint x="1950" y="1050" as="sourcePoint" />
            <mxPoint x="1758" y="927" as="targetPoint" />
          </mxGeometry>
        </mxCell>
        <mxCell id="-VxAkrDXX86SFEOjTzRP-60" value="" style="endArrow=open;endFill=1;endSize=12;html=1;rounded=0;entryX=1;entryY=0.5;entryDx=0;entryDy=0;exitX=0.5;exitY=0.5;exitDx=0;exitDy=0;exitPerimeter=0;" parent="1" source="-VxAkrDXX86SFEOjTzRP-52" target="-VxAkrDXX86SFEOjTzRP-35" edge="1">
          <mxGeometry width="160" relative="1" as="geometry">
            <mxPoint x="1965" y="1280" as="sourcePoint" />
            <mxPoint x="1760" y="950" as="targetPoint" />
          </mxGeometry>
        </mxCell>
        <mxCell id="-VxAkrDXX86SFEOjTzRP-61" value="" style="endArrow=open;endFill=1;endSize=12;html=1;rounded=0;entryX=1;entryY=0.5;entryDx=0;entryDy=0;exitX=0.5;exitY=0.5;exitDx=0;exitDy=0;exitPerimeter=0;" parent="1" source="-VxAkrDXX86SFEOjTzRP-52" target="-VxAkrDXX86SFEOjTzRP-37" edge="1">
          <mxGeometry width="160" relative="1" as="geometry">
            <mxPoint x="1965" y="1280" as="sourcePoint" />
            <mxPoint x="1820" y="1190" as="targetPoint" />
          </mxGeometry>
        </mxCell>
        <mxCell id="-VxAkrDXX86SFEOjTzRP-62" value="" style="endArrow=open;endFill=1;endSize=12;html=1;rounded=0;exitX=0.5;exitY=0.5;exitDx=0;exitDy=0;exitPerimeter=0;entryX=0;entryY=0;entryDx=0;entryDy=0;" parent="1" source="-VxAkrDXX86SFEOjTzRP-42" target="-VxAkrDXX86SFEOjTzRP-26" edge="1">
          <mxGeometry width="160" relative="1" as="geometry">
            <mxPoint x="885" y="650" as="sourcePoint" />
            <mxPoint x="1195" y="1035" as="targetPoint" />
          </mxGeometry>
        </mxCell>
        <mxCell id="-VxAkrDXX86SFEOjTzRP-63" value="Extends" style="endArrow=block;endSize=16;endFill=0;html=1;rounded=0;entryX=0.007;entryY=0.332;entryDx=0;entryDy=0;entryPerimeter=0;exitX=0.91;exitY=0.772;exitDx=0;exitDy=0;exitPerimeter=0;" parent="1" edge="1">
          <mxGeometry width="160" relative="1" as="geometry">
            <mxPoint x="2370" y="890" as="sourcePoint" />
            <mxPoint x="2466" y="944" as="targetPoint" />
          </mxGeometry>
        </mxCell>
        <mxCell id="-VxAkrDXX86SFEOjTzRP-64" value="Extends" style="endArrow=block;endSize=16;endFill=0;html=1;rounded=0;entryX=0.007;entryY=0.332;entryDx=0;entryDy=0;entryPerimeter=0;exitX=0.91;exitY=0.772;exitDx=0;exitDy=0;exitPerimeter=0;" parent="1" edge="1">
          <mxGeometry width="160" relative="1" as="geometry">
            <mxPoint x="2380" y="900" as="sourcePoint" />
            <mxPoint x="2476" y="954" as="targetPoint" />
          </mxGeometry>
        </mxCell>
        <mxCell id="-VxAkrDXX86SFEOjTzRP-65" value="Create Portfolio" style="ellipse;whiteSpace=wrap;html=1;" parent="1" vertex="1">
          <mxGeometry x="2160" y="1190" width="90" height="70" as="geometry" />
        </mxCell>
        <mxCell id="-VxAkrDXX86SFEOjTzRP-66" value="" style="endArrow=open;endFill=1;endSize=12;html=1;rounded=0;exitX=0.5;exitY=0.5;exitDx=0;exitDy=0;exitPerimeter=0;entryX=1;entryY=0.5;entryDx=0;entryDy=0;" parent="1" source="-VxAkrDXX86SFEOjTzRP-53" target="-VxAkrDXX86SFEOjTzRP-40" edge="1">
          <mxGeometry width="160" relative="1" as="geometry">
            <mxPoint x="1740" y="581.5" as="sourcePoint" />
            <mxPoint x="1889" y="548.5" as="targetPoint" />
          </mxGeometry>
        </mxCell>
        <mxCell id="-VxAkrDXX86SFEOjTzRP-67" value="" style="endArrow=open;endFill=1;endSize=12;html=1;rounded=0;exitX=0.55;exitY=0.503;exitDx=0;exitDy=0;exitPerimeter=0;entryX=0.084;entryY=0.817;entryDx=0;entryDy=0;entryPerimeter=0;" parent="1" edge="1">
          <mxGeometry width="160" relative="1" as="geometry">
            <mxPoint x="610" y="1113" as="sourcePoint" />
            <mxPoint x="759" y="1080" as="targetPoint" />
          </mxGeometry>
        </mxCell>
        <mxCell id="-VxAkrDXX86SFEOjTzRP-68" value="" style="endArrow=open;endFill=1;endSize=12;html=1;rounded=0;exitX=0.55;exitY=0.503;exitDx=0;exitDy=0;exitPerimeter=0;entryX=0.084;entryY=0.817;entryDx=0;entryDy=0;entryPerimeter=0;" parent="1" edge="1">
          <mxGeometry width="160" relative="1" as="geometry">
            <mxPoint x="620" y="1123" as="sourcePoint" />
            <mxPoint x="769" y="1090" as="targetPoint" />
          </mxGeometry>
        </mxCell>
        <mxCell id="-VxAkrDXX86SFEOjTzRP-69" value="" style="endArrow=open;endFill=1;endSize=12;html=1;rounded=0;exitX=0.5;exitY=0.5;exitDx=0;exitDy=0;exitPerimeter=0;entryX=0;entryY=0;entryDx=0;entryDy=0;" parent="1" source="-VxAkrDXX86SFEOjTzRP-42" target="-VxAkrDXX86SFEOjTzRP-41" edge="1">
          <mxGeometry width="160" relative="1" as="geometry">
            <mxPoint x="920" y="1103" as="sourcePoint" />
            <mxPoint x="1069" y="1070" as="targetPoint" />
          </mxGeometry>
        </mxCell>
      </root>
    </mxGraphModel>
  </diagram>
</mxfile>
